<svg width="300" height="300" viewBox="0 0 300 300" fill="none" xmlns="http://www.w3.org/2000/svg">
    <rect width="300" height="300" rx="150" fill="#fff"/>
    <path fill-rule="evenodd" clip-rule="evenodd" d="M116.03 80.333c1.233 6.991-3.435 13.658-10.426 14.89a55.866 55.866 0 1 0 55.464 87.062c4.072-5.815 12.087-7.228 17.902-3.157 5.815 4.072 7.228 12.087 3.156 17.903A81.574 81.574 0 1 1 101.14 69.906c6.991-1.232 13.658 3.436 14.89 10.427z" fill="#BDC4D3"/>
    <path fill-rule="evenodd" clip-rule="evenodd" d="M185.244 94.388a55.866 55.866 0 0 0-46.982 23.81c-4.072 5.815-12.087 7.228-17.902 3.156-5.815-4.071-7.229-12.086-3.157-17.902a81.582 81.582 0 0 1 68.601-34.765 81.575 81.575 0 0 1 12.386 161.889c-6.991 1.233-13.658-3.435-14.891-10.426-1.232-6.991 3.436-13.658 10.427-14.891a55.865 55.865 0 0 0-8.482-110.87z" fill="#BDC4D3"/>
    <path fill-rule="evenodd" clip-rule="evenodd" d="M184.025 165.949c8.675 0 15.707-7.033 15.707-15.708s-7.032-15.707-15.707-15.707-15.708 7.032-15.708 15.707 7.033 15.708 15.708 15.708zm-68.72 0c8.675 0 15.707-7.033 15.707-15.708s-7.032-15.707-15.707-15.707-15.708 7.032-15.708 15.707 7.033 15.708 15.708 15.708z" fill="#0058FF"/>
</svg>
