<svg width="430" height="127" viewBox="0 0 430 127" fill="none" xmlns="http://www.w3.org/2000/svg">
<path fill-rule="evenodd" clip-rule="evenodd" d="M119.303 117.682C113.632 123.353 105.94 126.539 97.9199 126.539V96.2991V66.0591C105.94 66.0591 113.632 69.2451 119.303 74.9162C124.974 80.5873 128.16 88.2789 128.16 96.2991C128.16 104.319 124.974 112.011 119.303 117.682ZM8.85709 51.6234C14.5282 57.2945 22.2199 60.4805 30.24 60.4805L30.24 30.2405V0.000473022C22.2199 0.000473022 14.5282 3.18646 8.85709 8.85756C3.18599 14.5287 0 22.2203 0 30.2405C0 38.2606 3.18599 45.9523 8.85709 51.6234ZM54.2174 51.6234C59.8885 57.2945 67.5802 60.4805 75.6003 60.4805V30.2405V0.000473022C67.5802 0.000473022 59.8885 3.18646 54.2174 8.85756C48.5463 14.5287 45.3604 22.2203 45.3604 30.2405C45.3604 38.2606 48.5463 45.9523 54.2174 51.6234ZM120.959 60.4805C112.938 60.4805 105.247 57.2945 99.5756 51.6234C93.9045 45.9523 90.7185 38.2606 90.7185 30.2405C90.7185 22.2203 93.9045 14.5287 99.5756 8.85756C105.247 3.18646 112.938 0.000473022 120.959 0.000473022V30.2405V60.4805ZM52.5596 126.539C60.5797 126.539 68.2714 123.353 73.9425 117.682C79.6136 112.011 82.7996 104.319 82.7996 96.2991C82.7996 88.2789 79.6136 80.5873 73.9425 74.9162C68.2714 69.2451 60.5797 66.0591 52.5596 66.0591V96.2991V126.539ZM28.5821 117.682C22.911 123.353 15.2194 126.539 7.19921 126.539L7.19921 96.2991L7.19921 66.0591C15.2194 66.0591 22.911 69.2451 28.5821 74.9162C34.2532 80.5873 37.4392 88.2789 37.4392 96.2991C37.4392 104.319 34.2532 112.011 28.5821 117.682Z" fill="url(#paint0_linear_98_12932)" style=""/>
<path d="M201.696 61.5763L190.616 62.2582C190.427 61.3112 190.02 60.4589 189.395 59.7013C188.77 58.9248 187.946 58.3093 186.923 57.8548C185.919 57.3813 184.717 57.1445 183.315 57.1445C181.44 57.1445 179.859 57.5423 178.571 58.3377C177.283 59.1142 176.639 60.1559 176.639 61.4627C176.639 62.5044 177.056 63.3851 177.889 64.1048C178.722 64.8245 180.152 65.4021 182.179 65.8377L190.077 67.4286C194.319 68.2998 197.482 69.7013 199.565 71.6332C201.649 73.565 202.69 76.1029 202.69 79.2468C202.69 82.1067 201.847 84.6161 200.162 86.7752C198.495 88.9343 196.204 90.6199 193.287 91.832C190.389 93.0252 187.046 93.6218 183.258 93.6218C177.482 93.6218 172.88 92.4192 169.452 90.0138C166.043 87.5896 164.044 84.2942 163.457 80.1275L175.361 79.5025C175.721 81.2638 176.592 82.6085 177.974 83.5366C179.357 84.4457 181.128 84.9002 183.287 84.9002C185.408 84.9002 187.113 84.493 188.4 83.6786C189.707 82.8453 190.37 81.7752 190.389 80.4684C190.37 79.3699 189.906 78.4703 188.997 77.7695C188.088 77.0498 186.686 76.5006 184.793 76.1218L177.236 74.6161C172.974 73.7638 169.802 72.2866 167.719 70.1843C165.654 68.082 164.622 65.4021 164.622 62.1445C164.622 59.3415 165.38 56.9267 166.895 54.9002C168.429 52.8737 170.579 51.3112 173.344 50.2127C176.128 49.1142 179.385 48.565 183.116 48.565C188.628 48.565 192.965 49.7298 196.128 52.0593C199.31 54.3888 201.166 57.5612 201.696 61.5763ZM238.027 93.6218C233.557 93.6218 229.713 92.6748 226.493 90.7809C223.292 88.868 220.83 86.2165 219.106 82.8263C217.402 79.4362 216.55 75.5347 216.55 71.1218C216.55 66.6521 217.411 62.7317 219.135 59.3604C220.877 55.9703 223.349 53.3282 226.55 51.4343C229.75 49.5214 233.557 48.565 237.97 48.565C241.777 48.565 245.11 49.2563 247.97 50.6388C250.83 52.0214 253.093 53.9627 254.76 56.4627C256.427 58.9627 257.345 61.8983 257.516 65.2695H246.095C245.773 63.0915 244.921 61.3396 243.538 60.0138C242.175 58.6692 240.385 57.9968 238.169 57.9968C236.294 57.9968 234.656 58.5082 233.254 59.5309C231.872 60.5347 230.792 62.0025 230.016 63.9343C229.239 65.8661 228.851 68.2051 228.851 70.9513C228.851 73.7354 229.23 76.1029 229.987 78.0536C230.764 80.0044 231.853 81.4911 233.254 82.5138C234.656 83.5366 236.294 84.0479 238.169 84.0479C239.552 84.0479 240.792 83.7638 241.891 83.1957C243.008 82.6275 243.927 81.8036 244.646 80.7241C245.385 79.6256 245.868 78.3093 246.095 76.7752H257.516C257.326 80.1085 256.417 83.0442 254.788 85.582C253.178 88.101 250.953 90.0707 248.112 91.4911C245.271 92.9116 241.909 93.6218 238.027 93.6218ZM273.264 92.7695V49.1332H284.997V56.7468H285.452C286.247 54.0385 287.582 51.993 289.457 50.6104C291.332 49.2089 293.491 48.5082 295.935 48.5082C296.541 48.5082 297.194 48.546 297.895 48.6218C298.596 48.6976 299.211 48.8017 299.741 48.9343V59.6729C299.173 59.5025 298.387 59.351 297.383 59.2184C296.38 59.0858 295.461 59.0195 294.628 59.0195C292.847 59.0195 291.257 59.4078 289.855 60.1843C288.472 60.9419 287.374 62.0025 286.56 63.3661C285.764 64.7298 285.366 66.3017 285.366 68.082V92.7695H273.264ZM313.998 92.7695V49.1332H326.101V92.7695H313.998ZM320.078 43.5082C318.279 43.5082 316.735 42.9116 315.447 41.7184C314.178 40.5063 313.544 39.0574 313.544 37.3718C313.544 35.7051 314.178 34.2752 315.447 33.082C316.735 31.8699 318.279 31.2638 320.078 31.2638C321.877 31.2638 323.411 31.8699 324.68 33.082C325.968 34.2752 326.612 35.7051 326.612 37.3718C326.612 39.0574 325.968 40.5063 324.68 41.7184C323.411 42.9116 321.877 43.5082 320.078 43.5082ZM343.795 109.133V49.1332H355.727V56.4627H356.267C356.797 55.2885 357.564 54.0953 358.568 52.8832C359.591 51.6521 360.917 50.6294 362.545 49.815C364.193 48.9817 366.239 48.565 368.682 48.565C371.864 48.565 374.799 49.3983 377.489 51.065C380.178 52.7127 382.328 55.2032 383.937 58.5366C385.547 61.851 386.352 66.0082 386.352 71.0082C386.352 75.8756 385.566 79.9854 383.994 83.3377C382.441 86.671 380.32 89.1995 377.631 90.9229C374.96 92.6275 371.968 93.4798 368.653 93.4798C366.305 93.4798 364.307 93.0915 362.659 92.315C361.03 91.5385 359.695 90.5631 358.653 89.3888C357.612 88.1957 356.816 86.993 356.267 85.7809H355.898V109.133H343.795ZM355.642 70.9513C355.642 73.546 356.002 75.8093 356.722 77.7411C357.441 79.6729 358.483 81.1786 359.847 82.2582C361.21 83.3188 362.867 83.8491 364.818 83.8491C366.788 83.8491 368.454 83.3093 369.818 82.2298C371.182 81.1313 372.214 79.6161 372.915 77.6843C373.634 75.7335 373.994 73.4892 373.994 70.9513C373.994 68.4324 373.644 66.2165 372.943 64.3036C372.242 62.3907 371.21 60.8945 369.847 59.815C368.483 58.7354 366.807 58.1957 364.818 58.1957C362.848 58.1957 361.182 58.7165 359.818 59.7582C358.473 60.7998 357.441 62.2771 356.722 64.19C356.002 66.1029 355.642 68.3567 355.642 70.9513ZM425.631 49.1332V58.2241H399.352V49.1332H425.631ZM405.318 38.6786H417.42V79.3604C417.42 80.4779 417.591 81.3491 417.932 81.9741C418.273 82.5801 418.746 83.0063 419.352 83.2525C419.977 83.4987 420.697 83.6218 421.511 83.6218C422.079 83.6218 422.648 83.5745 423.216 83.4798C423.784 83.3661 424.22 83.2809 424.523 83.2241L426.426 92.2298C425.82 92.4192 424.968 92.637 423.869 92.8832C422.771 93.1483 421.436 93.3093 419.864 93.3661C416.947 93.4798 414.39 93.0915 412.193 92.2013C410.015 91.3112 408.32 89.9286 407.108 88.0536C405.896 86.1786 405.299 83.8112 405.318 80.9513V38.6786Z" fill="#0F0F0F" style="fill:#0F0F0F;fill:color(display-p3 0.0583 0.0583 0.0583);fill-opacity:1;"/>
<defs>
<linearGradient id="paint0_linear_98_12932" x1="120.735" y1="0.00029698" x2="14.313" y2="131.732" gradientUnits="userSpaceOnUse">
<stop stop-color="#00F89F" style="stop-color:#00F89F;stop-color:color(display-p3 0.0000 0.9719 0.6220);stop-opacity:1;"/>
<stop offset="1" stop-color="#7EFF57" style="stop-color:#7EFF57;stop-color:color(display-p3 0.4959 1.0000 0.3393);stop-opacity:1;"/>
</linearGradient>
</defs>
</svg>
